solid OpenSCAD_Model
  facet normal 0 0 -1
    outer loop
      vertex 99.5399 29.4962 0
      vertex 100.3 66.55 0
      vertex 100.3 28.45 0
    endloop
  endfacet
  facet normal 0 0 -1
    outer loop
      vertex 99.5399 29.4962 0
      vertex 99.5399 65.5038 0
      vertex 100.3 66.55 0
    endloop
  endfacet
  facet normal 0 0 -1
    outer loop
      vertex 98.3101 29.0966 0
      vertex 99.5399 65.5038 0
      vertex 99.5399 29.4962 0
    endloop
  endfacet
  facet normal -0 0 -1
    outer loop
      vertex 99.5399 65.5038 0
      vertex 98.3101 29.0966 0
      vertex 98.3101 65.9034 0
    endloop
  endfacet
  facet normal 0 0 -1
    outer loop
      vertex 118.482 0.0291595 0
      vertex 122 4 0
      vertex 121.542 2.1411 0
    endloop
  endfacet
  facet normal 0 0 -1
    outer loop
      vertex 122 4 0
      vertex 100.3 28.45 0
      vertex 122 85 0
    endloop
  endfacet
  facet normal 0 0 -1
    outer loop
      vertex 118.482 0.0291595 0
      vertex 121.542 2.1411 0
      vertex 120.272 0.708054 0
    endloop
  endfacet
  facet normal 0 0 -1
    outer loop
      vertex 100.3 66.55 0
      vertex 122 85 0
      vertex 100.3 28.45 0
    endloop
  endfacet
  facet normal -0 0 -1
    outer loop
      vertex 122 4 0
      vertex 118.482 0.0291595 0
      vertex 99.5399 27.4038 0
    endloop
  endfacet
  facet normal 0 0 -1
    outer loop
      vertex 99.5399 67.5962 0
      vertex 122 85 0
      vertex 100.3 66.55 0
    endloop
  endfacet
  facet normal 0 -0 -1
    outer loop
      vertex 118.482 88.9708 0
      vertex 122 85 0
      vertex 99.5399 67.5962 0
    endloop
  endfacet
  facet normal 0 0 -1
    outer loop
      vertex 122 4 0
      vertex 99.5399 27.4038 0
      vertex 100.3 28.45 0
    endloop
  endfacet
  facet normal 0 0 -1
    outer loop
      vertex 118.482 0.0291595 0
      vertex 98.3101 27.8034 0
      vertex 99.5399 27.4038 0
    endloop
  endfacet
  facet normal 0 0 -1
    outer loop
      vertex 20.95 8.29999 0
      vertex 98.3101 29.0966 0
      vertex 98.3101 27.8034 0
    endloop
  endfacet
  facet normal 0 0 -1
    outer loop
      vertex 98.3101 29.0966 0
      vertex 24.1 66.5 0
      vertex 98.3101 65.9034 0
    endloop
  endfacet
  facet normal 0 0 -1
    outer loop
      vertex 98.3101 65.9034 0
      vertex 24.1 66.5 0
      vertex 98.3101 67.1966 0
    endloop
  endfacet
  facet normal 0 0 -1
    outer loop
      vertex 20.95 8.29999 0
      vertex 98.3101 27.8034 0
      vertex 118.482 0.0291595 0
    endloop
  endfacet
  facet normal 0 0 -1
    outer loop
      vertex 98.3101 29.0966 0
      vertex 20.95 8.29999 0
      vertex 20.1899 9.34616 0
    endloop
  endfacet
  facet normal 0 0 -1
    outer loop
      vertex 98.3101 29.0966 0
      vertex 23.3399 65.4538 0
      vertex 24.1 66.5 0
    endloop
  endfacet
  facet normal -0 0 -1
    outer loop
      vertex 23.3399 65.4538 0
      vertex 20.1899 9.34616 0
      vertex 22.1101 65.8534 0
    endloop
  endfacet
  facet normal -0 0 -1
    outer loop
      vertex 98.3101 29.0966 0
      vertex 20.1899 9.34616 0
      vertex 23.3399 65.4538 0
    endloop
  endfacet
  facet normal 0 0 -1
    outer loop
      vertex 118.482 0.0291595 0
      vertex 20.1899 7.25383 0
      vertex 20.95 8.29999 0
    endloop
  endfacet
  facet normal -0 0 -1
    outer loop
      vertex 18.9601 7.65343 0
      vertex 4.48213 0.0291595 0
      vertex 18.9601 8.94656 0
    endloop
  endfacet
  facet normal -0 0 -1
    outer loop
      vertex 20.1899 7.25383 0
      vertex 4.48213 0.0291595 0
      vertex 18.9601 7.65343 0
    endloop
  endfacet
  facet normal 0 0 -1
    outer loop
      vertex 4.48213 0.0291595 0
      vertex 20.1899 7.25383 0
      vertex 118.482 0.0291595 0
    endloop
  endfacet
  facet normal 0 0 -1
    outer loop
      vertex 121.542 86.8589 0
      vertex 118.482 88.9708 0
      vertex 120.272 88.2919 0
    endloop
  endfacet
  facet normal 0 0 -1
    outer loop
      vertex 122 85 0
      vertex 118.482 88.9708 0
      vertex 121.542 86.8589 0
    endloop
  endfacet
  facet normal 0 0 -1
    outer loop
      vertex 98.3101 67.1966 0
      vertex 118.482 88.9708 0
      vertex 99.5399 67.5962 0
    endloop
  endfacet
  facet normal 0 0 -1
    outer loop
      vertex 23.3399 67.5462 0
      vertex 98.3101 67.1966 0
      vertex 24.1 66.5 0
    endloop
  endfacet
  facet normal 0 0 -1
    outer loop
      vertex 4.48213 88.9708 0
      vertex 98.3101 67.1966 0
      vertex 23.3399 67.5462 0
    endloop
  endfacet
  facet normal 0 0 -1
    outer loop
      vertex 18.9601 8.94656 0
      vertex 22.1101 65.8534 0
      vertex 20.1899 9.34616 0
    endloop
  endfacet
  facet normal 0 0 -1
    outer loop
      vertex 0.116226 3.04272 0
      vertex 22.1101 65.8534 0
      vertex 18.9601 8.94656 0
    endloop
  endfacet
  facet normal 0 0 -1
    outer loop
      vertex 0.116226 3.04272 0
      vertex 18.9601 8.94656 0
      vertex 4.48213 0.0291595 0
    endloop
  endfacet
  facet normal 0 0 -1
    outer loop
      vertex 98.3101 67.1966 0
      vertex 4.48213 88.9708 0
      vertex 118.482 88.9708 0
    endloop
  endfacet
  facet normal 0 0 -1
    outer loop
      vertex 22.1101 67.1466 0
      vertex 4.48213 88.9708 0
      vertex 23.3399 67.5462 0
    endloop
  endfacet
  facet normal 0 0 -1
    outer loop
      vertex 0.116226 85.9573 0
      vertex 22.1101 65.8534 0
      vertex 0.116226 3.04272 0
    endloop
  endfacet
  facet normal 0 0 -1
    outer loop
      vertex 0.116226 3.04272 0
      vertex 4.48213 0.0291595 0
      vertex 2.58157 0.259933 0
    endloop
  endfacet
  facet normal 0 0 -1
    outer loop
      vertex 22.1101 65.8534 0
      vertex 0.116226 85.9573 0
      vertex 22.1101 67.1466 0
    endloop
  endfacet
  facet normal 0 0 -1
    outer loop
      vertex 0.116226 3.04272 0
      vertex 2.58157 0.259933 0
      vertex 1.00595 1.3475 0
    endloop
  endfacet
  facet normal 0 0 -1
    outer loop
      vertex 22.1101 67.1466 0
      vertex 0.116226 85.9573 0
      vertex 4.48213 88.9708 0
    endloop
  endfacet
  facet normal 0 0 -1
    outer loop
      vertex 4.48213 88.9708 0
      vertex 0.116226 85.9573 0
      vertex 2.58157 88.7401 0
    endloop
  endfacet
  facet normal 0 0 -1
    outer loop
      vertex 2.58157 88.7401 0
      vertex 0.116226 85.9573 0
      vertex 1.00595 87.6525 0
    endloop
  endfacet
  facet normal -0 0 1
    outer loop
      vertex 24 3 1.4
      vertex 40 0.0291595 1.4
      vertex 40 3 1.4
    endloop
  endfacet
  facet normal 0 0 1
    outer loop
      vertex 40 0.0291595 1.4
      vertex 24 3 1.4
      vertex 24 0.0291595 1.4
    endloop
  endfacet
  facet normal -0 0 1
    outer loop
      vertex 22 43 1.4
      vertex 42 4 1.4
      vertex 42 43 1.4
    endloop
  endfacet
  facet normal 0 0 1
    outer loop
      vertex 42 4 1.4
      vertex 22 43 1.4
      vertex 22 4 1.4
    endloop
  endfacet
  facet normal 0.748512 -0.663121 0
    outer loop
      vertex 120.272 0.708054 12
      vertex 121.542 2.1411 0
      vertex 121.542 2.1411 12
    endloop
  endfacet
  facet normal 0.748512 -0.663121 0
    outer loop
      vertex 121.542 2.1411 0
      vertex 120.272 0.708054 12
      vertex 120.272 0.708054 0
    endloop
  endfacet
  facet normal 0.97094 -0.239322 0
    outer loop
      vertex 121.542 2.1411 12
      vertex 122 4 0
      vertex 122 4 12
    endloop
  endfacet
  facet normal 0.97094 -0.239322 0
    outer loop
      vertex 122 4 0
      vertex 121.542 2.1411 12
      vertex 121.542 2.1411 0
    endloop
  endfacet
  facet normal 1 -0 0
    outer loop
      vertex 122 4 12
      vertex 122 85 0
      vertex 122 85 12
    endloop
  endfacet
  facet normal 1 0 0
    outer loop
      vertex 122 85 0
      vertex 122 4 12
      vertex 122 4 0
    endloop
  endfacet
  facet normal 0.97094 0.239324 0
    outer loop
      vertex 122 85 12
      vertex 121.542 86.8589 0
      vertex 121.542 86.8589 12
    endloop
  endfacet
  facet normal 0.97094 0.239324 0
    outer loop
      vertex 121.542 86.8589 0
      vertex 122 85 12
      vertex 122 85 0
    endloop
  endfacet
  facet normal 0.748512 0.663121 0
    outer loop
      vertex 121.542 86.8589 12
      vertex 120.272 88.2919 0
      vertex 120.272 88.2919 12
    endloop
  endfacet
  facet normal 0.748512 0.663121 0
    outer loop
      vertex 120.272 88.2919 0
      vertex 121.542 86.8589 12
      vertex 121.542 86.8589 0
    endloop
  endfacet
  facet normal 0.354602 0.935017 -0
    outer loop
      vertex 120.272 88.2919 0
      vertex 118.482 88.9708 12
      vertex 120.272 88.2919 12
    endloop
  endfacet
  facet normal 0.354602 0.935017 0
    outer loop
      vertex 118.482 88.9708 12
      vertex 120.272 88.2919 0
      vertex 118.482 88.9708 0
    endloop
  endfacet
  facet normal 0 1 -0
    outer loop
      vertex 118.482 88.9708 0
      vertex 4.48213 88.9708 12
      vertex 118.482 88.9708 12
    endloop
  endfacet
  facet normal 0 1 0
    outer loop
      vertex 4.48213 88.9708 12
      vertex 118.482 88.9708 0
      vertex 4.48213 88.9708 0
    endloop
  endfacet
  facet normal -0.120539 0.992709 0
    outer loop
      vertex 4.48213 88.9708 0
      vertex 2.58157 88.7401 12
      vertex 4.48213 88.9708 12
    endloop
  endfacet
  facet normal -0.120539 0.992709 0
    outer loop
      vertex 2.58157 88.7401 12
      vertex 4.48213 88.9708 0
      vertex 2.58157 88.7401 0
    endloop
  endfacet
  facet normal -0.568063 0.822985 0
    outer loop
      vertex 2.58157 88.7401 0
      vertex 1.00595 87.6525 12
      vertex 2.58157 88.7401 12
    endloop
  endfacet
  facet normal -0.568063 0.822985 0
    outer loop
      vertex 1.00595 87.6525 12
      vertex 2.58157 88.7401 0
      vertex 1.00595 87.6525 0
    endloop
  endfacet
  facet normal -0.885455 0.464725 0
    outer loop
      vertex 0.116226 85.9573 0
      vertex 1.00595 87.6525 12
      vertex 1.00595 87.6525 0
    endloop
  endfacet
  facet normal -0.885455 0.464725 0
    outer loop
      vertex 1.00595 87.6525 12
      vertex 0.116226 85.9573 0
      vertex 0.116226 85.9573 12
    endloop
  endfacet
  facet normal -1 0 0
    outer loop
      vertex 0.116226 3.04272 0
      vertex 0.116226 85.9573 12
      vertex 0.116226 85.9573 0
    endloop
  endfacet
  facet normal -1 -0 0
    outer loop
      vertex 0.116226 85.9573 12
      vertex 0.116226 3.04272 0
      vertex 0.116226 3.04272 12
    endloop
  endfacet
  facet normal -0.885455 -0.464725 0
    outer loop
      vertex 1.00595 1.3475 0
      vertex 0.116226 3.04272 12
      vertex 0.116226 3.04272 0
    endloop
  endfacet
  facet normal -0.885455 -0.464725 0
    outer loop
      vertex 0.116226 3.04272 12
      vertex 1.00595 1.3475 0
      vertex 1.00595 1.3475 12
    endloop
  endfacet
  facet normal -0.568063 -0.822985 0
    outer loop
      vertex 1.00595 1.3475 0
      vertex 2.58157 0.259933 12
      vertex 1.00595 1.3475 12
    endloop
  endfacet
  facet normal -0.568063 -0.822985 -0
    outer loop
      vertex 2.58157 0.259933 12
      vertex 1.00595 1.3475 0
      vertex 2.58157 0.259933 0
    endloop
  endfacet
  facet normal -0.120539 -0.992709 0
    outer loop
      vertex 2.58157 0.259933 0
      vertex 4.48213 0.0291595 12
      vertex 2.58157 0.259933 12
    endloop
  endfacet
  facet normal -0.120539 -0.992709 -0
    outer loop
      vertex 4.48213 0.0291595 12
      vertex 2.58157 0.259933 0
      vertex 4.48213 0.0291595 0
    endloop
  endfacet
  facet normal 0 -1 0
    outer loop
      vertex 4.48213 0.0291595 12
      vertex 24 0.0291595 1.4
      vertex 24 0.0291595 12
    endloop
  endfacet
  facet normal 0 -1 -0
    outer loop
      vertex 24 0.0291595 1.4
      vertex 4.48213 0.0291595 0
      vertex 40 0.0291595 1.4
    endloop
  endfacet
  facet normal 0 -1 0
    outer loop
      vertex 4.48213 0.0291595 0
      vertex 24 0.0291595 1.4
      vertex 4.48213 0.0291595 12
    endloop
  endfacet
  facet normal 0 -1 0
    outer loop
      vertex 40 0.0291595 12
      vertex 94.75 0.0291595 3.4
      vertex 94.75 0.0291595 12
    endloop
  endfacet
  facet normal 0 -1 0
    outer loop
      vertex 118.482 0.0291595 0
      vertex 94.75 0.0291595 3.4
      vertex 40 0.0291595 1.4
    endloop
  endfacet
  facet normal 0 -1 0
    outer loop
      vertex 40 0.0291595 1.4
      vertex 94.75 0.0291595 3.4
      vertex 40 0.0291595 12
    endloop
  endfacet
  facet normal 0 -1 0
    outer loop
      vertex 105 0.0291595 3.4
      vertex 118.482 0.0291595 12
      vertex 105 0.0291595 12
    endloop
  endfacet
  facet normal 0 -1 0
    outer loop
      vertex 118.482 0.0291595 0
      vertex 40 0.0291595 1.4
      vertex 4.48213 0.0291595 0
    endloop
  endfacet
  facet normal 0 -1 0
    outer loop
      vertex 105 0.0291595 3.4
      vertex 118.482 0.0291595 0
      vertex 118.482 0.0291595 12
    endloop
  endfacet
  facet normal 0 -1 0
    outer loop
      vertex 94.75 0.0291595 3.4
      vertex 118.482 0.0291595 0
      vertex 105 0.0291595 3.4
    endloop
  endfacet
  facet normal 0.354602 -0.935017 0
    outer loop
      vertex 118.482 0.0291595 0
      vertex 120.272 0.708054 12
      vertex 118.482 0.0291595 12
    endloop
  endfacet
  facet normal 0.354602 -0.935017 0
    outer loop
      vertex 120.272 0.708054 12
      vertex 118.482 0.0291595 0
      vertex 120.272 0.708054 0
    endloop
  endfacet
  facet normal 1 -0 0
    outer loop
      vertex 98.3101 65.9034 3.4
      vertex 98.3101 67.1966 0
      vertex 98.3101 67.1966 3.4
    endloop
  endfacet
  facet normal 1 0 0
    outer loop
      vertex 98.3101 67.1966 0
      vertex 98.3101 65.9034 3.4
      vertex 98.3101 65.9034 0
    endloop
  endfacet
  facet normal 0.309015 -0.951057 0
    outer loop
      vertex 98.3101 67.1966 0
      vertex 99.5399 67.5962 3.4
      vertex 98.3101 67.1966 3.4
    endloop
  endfacet
  facet normal 0.309015 -0.951057 0
    outer loop
      vertex 99.5399 67.5962 3.4
      vertex 98.3101 67.1966 0
      vertex 99.5399 67.5962 0
    endloop
  endfacet
  facet normal -0.809024 -0.587776 0
    outer loop
      vertex 100.3 66.55 0
      vertex 99.5399 67.5962 3.4
      vertex 99.5399 67.5962 0
    endloop
  endfacet
  facet normal -0.809024 -0.587776 0
    outer loop
      vertex 99.5399 67.5962 3.4
      vertex 100.3 66.55 0
      vertex 100.3 66.55 3.4
    endloop
  endfacet
  facet normal -0.80902 0.587782 0
    outer loop
      vertex 99.5399 65.5038 0
      vertex 100.3 66.55 3.4
      vertex 100.3 66.55 0
    endloop
  endfacet
  facet normal -0.80902 0.587782 0
    outer loop
      vertex 100.3 66.55 3.4
      vertex 99.5399 65.5038 0
      vertex 99.5399 65.5038 3.4
    endloop
  endfacet
  facet normal 0.309015 0.951057 -0
    outer loop
      vertex 99.5399 65.5038 0
      vertex 98.3101 65.9034 3.4
      vertex 99.5399 65.5038 3.4
    endloop
  endfacet
  facet normal 0.309015 0.951057 0
    outer loop
      vertex 98.3101 65.9034 3.4
      vertex 99.5399 65.5038 0
      vertex 98.3101 65.9034 0
    endloop
  endfacet
  facet normal 1 -0 0
    outer loop
      vertex 22.1101 65.8534 3.4
      vertex 22.1101 67.1466 0
      vertex 22.1101 67.1466 3.4
    endloop
  endfacet
  facet normal 1 0 0
    outer loop
      vertex 22.1101 67.1466 0
      vertex 22.1101 65.8534 3.4
      vertex 22.1101 65.8534 0
    endloop
  endfacet
  facet normal 0.309018 -0.951056 0
    outer loop
      vertex 22.1101 67.1466 0
      vertex 23.3399 67.5462 3.4
      vertex 22.1101 67.1466 3.4
    endloop
  endfacet
  facet normal 0.309018 -0.951056 0
    outer loop
      vertex 23.3399 67.5462 3.4
      vertex 22.1101 67.1466 0
      vertex 23.3399 67.5462 0
    endloop
  endfacet
  facet normal -0.809014 -0.587789 0
    outer loop
      vertex 24.1 66.5 0
      vertex 23.3399 67.5462 3.4
      vertex 23.3399 67.5462 0
    endloop
  endfacet
  facet normal -0.809014 -0.587789 0
    outer loop
      vertex 23.3399 67.5462 3.4
      vertex 24.1 66.5 0
      vertex 24.1 66.5 3.4
    endloop
  endfacet
  facet normal -0.809018 0.587784 0
    outer loop
      vertex 23.3399 65.4538 0
      vertex 24.1 66.5 3.4
      vertex 24.1 66.5 0
    endloop
  endfacet
  facet normal -0.809018 0.587784 0
    outer loop
      vertex 24.1 66.5 3.4
      vertex 23.3399 65.4538 0
      vertex 23.3399 65.4538 3.4
    endloop
  endfacet
  facet normal 0.309018 0.951056 -0
    outer loop
      vertex 23.3399 65.4538 0
      vertex 22.1101 65.8534 3.4
      vertex 23.3399 65.4538 3.4
    endloop
  endfacet
  facet normal 0.309018 0.951056 0
    outer loop
      vertex 22.1101 65.8534 3.4
      vertex 23.3399 65.4538 0
      vertex 22.1101 65.8534 0
    endloop
  endfacet
  facet normal 1 -0 0
    outer loop
      vertex 98.3101 27.8034 3.4
      vertex 98.3101 29.0966 0
      vertex 98.3101 29.0966 3.4
    endloop
  endfacet
  facet normal 1 0 0
    outer loop
      vertex 98.3101 29.0966 0
      vertex 98.3101 27.8034 3.4
      vertex 98.3101 27.8034 0
    endloop
  endfacet
  facet normal 0.309015 -0.951057 0
    outer loop
      vertex 98.3101 29.0966 0
      vertex 99.5399 29.4962 3.4
      vertex 98.3101 29.0966 3.4
    endloop
  endfacet
  facet normal 0.309015 -0.951057 0
    outer loop
      vertex 99.5399 29.4962 3.4
      vertex 98.3101 29.0966 0
      vertex 99.5399 29.4962 0
    endloop
  endfacet
  facet normal -0.80902 -0.587782 0
    outer loop
      vertex 100.3 28.45 0
      vertex 99.5399 29.4962 3.4
      vertex 99.5399 29.4962 0
    endloop
  endfacet
  facet normal -0.80902 -0.587782 0
    outer loop
      vertex 99.5399 29.4962 3.4
      vertex 100.3 28.45 0
      vertex 100.3 28.45 3.4
    endloop
  endfacet
  facet normal -0.809024 0.587776 0
    outer loop
      vertex 99.5399 27.4038 0
      vertex 100.3 28.45 3.4
      vertex 100.3 28.45 0
    endloop
  endfacet
  facet normal -0.809024 0.587776 0
    outer loop
      vertex 100.3 28.45 3.4
      vertex 99.5399 27.4038 0
      vertex 99.5399 27.4038 3.4
    endloop
  endfacet
  facet normal 0.309015 0.951057 -0
    outer loop
      vertex 99.5399 27.4038 0
      vertex 98.3101 27.8034 3.4
      vertex 99.5399 27.4038 3.4
    endloop
  endfacet
  facet normal 0.309015 0.951057 0
    outer loop
      vertex 98.3101 27.8034 3.4
      vertex 99.5399 27.4038 0
      vertex 98.3101 27.8034 0
    endloop
  endfacet
  facet normal 1 -0 0
    outer loop
      vertex 18.9601 7.65343 3.4
      vertex 18.9601 8.94656 0
      vertex 18.9601 8.94656 3.4
    endloop
  endfacet
  facet normal 1 0 0
    outer loop
      vertex 18.9601 8.94656 0
      vertex 18.9601 7.65343 3.4
      vertex 18.9601 7.65343 0
    endloop
  endfacet
  facet normal 0.309015 -0.951057 0
    outer loop
      vertex 18.9601 8.94656 0
      vertex 20.1899 9.34616 3.4
      vertex 18.9601 8.94656 3.4
    endloop
  endfacet
  facet normal 0.309015 -0.951057 0
    outer loop
      vertex 20.1899 9.34616 3.4
      vertex 18.9601 8.94656 0
      vertex 20.1899 9.34616 0
    endloop
  endfacet
  facet normal -0.809018 -0.587784 0
    outer loop
      vertex 20.95 8.29999 0
      vertex 20.1899 9.34616 3.4
      vertex 20.1899 9.34616 0
    endloop
  endfacet
  facet normal -0.809018 -0.587784 0
    outer loop
      vertex 20.1899 9.34616 3.4
      vertex 20.95 8.29999 0
      vertex 20.95 8.29999 3.4
    endloop
  endfacet
  facet normal -0.809014 0.587789 0
    outer loop
      vertex 20.1899 7.25383 0
      vertex 20.95 8.29999 3.4
      vertex 20.95 8.29999 0
    endloop
  endfacet
  facet normal -0.809014 0.587789 0
    outer loop
      vertex 20.95 8.29999 3.4
      vertex 20.1899 7.25383 0
      vertex 20.1899 7.25383 3.4
    endloop
  endfacet
  facet normal 0.309015 0.951057 -0
    outer loop
      vertex 20.1899 7.25383 0
      vertex 18.9601 7.65343 3.4
      vertex 20.1899 7.25383 3.4
    endloop
  endfacet
  facet normal 0.309015 0.951057 0
    outer loop
      vertex 18.9601 7.65343 3.4
      vertex 20.1899 7.25383 0
      vertex 18.9601 7.65343 0
    endloop
  endfacet
  facet normal -0 0 1
    outer loop
      vertex 99.5399 65.5038 3.4
      vertex 100.3 28.45 3.4
      vertex 100.3 66.55 3.4
    endloop
  endfacet
  facet normal 0 0 1
    outer loop
      vertex 99.5399 65.5038 3.4
      vertex 99.5399 29.4962 3.4
      vertex 100.3 28.45 3.4
    endloop
  endfacet
  facet normal 0 0 1
    outer loop
      vertex 98.3101 65.9034 3.4
      vertex 99.5399 29.4962 3.4
      vertex 99.5399 65.5038 3.4
    endloop
  endfacet
  facet normal 0 0 1
    outer loop
      vertex 99.5399 29.4962 3.4
      vertex 98.3101 65.9034 3.4
      vertex 98.3101 29.0966 3.4
    endloop
  endfacet
  facet normal -0 0 1
    outer loop
      vertex 100.3 28.45 3.4
      vertex 118 10 3.4
      vertex 118 85 3.4
    endloop
  endfacet
  facet normal 0 0 1
    outer loop
      vertex 118 10 3.4
      vertex 100.3 28.45 3.4
      vertex 111.75 10 3.4
    endloop
  endfacet
  facet normal -0 0 1
    outer loop
      vertex 99.5399 27.4038 3.4
      vertex 111.75 10 3.4
      vertex 100.3 28.45 3.4
    endloop
  endfacet
  facet normal 0 0 1
    outer loop
      vertex 94.75 2.75 3.4
      vertex 111.75 10 3.4
      vertex 99.5399 27.4038 3.4
    endloop
  endfacet
  facet normal 0 0 1
    outer loop
      vertex 100.3 28.45 3.4
      vertex 118 85 3.4
      vertex 100.3 66.55 3.4
    endloop
  endfacet
  facet normal 0 0 1
    outer loop
      vertex 118 85 3.4
      vertex 99.5399 67.5962 3.4
      vertex 100.3 66.55 3.4
    endloop
  endfacet
  facet normal 0 0 1
    outer loop
      vertex 118 85 3.4
      vertex 98.3101 67.1966 3.4
      vertex 99.5399 67.5962 3.4
    endloop
  endfacet
  facet normal 0 0 1
    outer loop
      vertex 42 43 3.4
      vertex 98.3101 65.9034 3.4
      vertex 98.3101 67.1966 3.4
    endloop
  endfacet
  facet normal 0 0 1
    outer loop
      vertex 98.3101 65.9034 3.4
      vertex 42 43 3.4
      vertex 98.3101 29.0966 3.4
    endloop
  endfacet
  facet normal 0 -0 1
    outer loop
      vertex 88.5 9.5 3.4
      vertex 98.3101 29.0966 3.4
      vertex 42 43 3.4
    endloop
  endfacet
  facet normal 0 0 1
    outer loop
      vertex 98.3101 27.8034 3.4
      vertex 88.5 9.5 3.4
      vertex 94.75 2.75 3.4
    endloop
  endfacet
  facet normal 0 0 1
    outer loop
      vertex 94.75 2.75 3.4
      vertex 88.5 9.5 3.4
      vertex 94.25 2.75 3.4
    endloop
  endfacet
  facet normal 0 0 1
    outer loop
      vertex 98.3101 29.0966 3.4
      vertex 88.5 9.5 3.4
      vertex 98.3101 27.8034 3.4
    endloop
  endfacet
  facet normal 0 0 1
    outer loop
      vertex 88.5 9.5 3.4
      vertex 42 43 3.4
      vertex 49.5 9.5 3.4
    endloop
  endfacet
  facet normal 0 0 1
    outer loop
      vertex 42 4 3.4
      vertex 49.5 9.5 3.4
      vertex 42 43 3.4
    endloop
  endfacet
  facet normal -0 0 1
    outer loop
      vertex 23.3399 67.5462 3.4
      vertex 98.3101 67.1966 3.4
      vertex 118 85 3.4
    endloop
  endfacet
  facet normal 0 0 1
    outer loop
      vertex 98.3101 67.1966 3.4
      vertex 24.1 66.5 3.4
      vertex 42 43 3.4
    endloop
  endfacet
  facet normal 0 0 1
    outer loop
      vertex 98.3101 67.1966 3.4
      vertex 23.3399 67.5462 3.4
      vertex 24.1 66.5 3.4
    endloop
  endfacet
  facet normal 0 0 1
    outer loop
      vertex 4 85 3.4
      vertex 22.1101 65.8534 3.4
      vertex 22.1101 67.1466 3.4
    endloop
  endfacet
  facet normal 0 0 1
    outer loop
      vertex 22 43 3.4
      vertex 20.95 8.29999 3.4
      vertex 22 4 3.4
    endloop
  endfacet
  facet normal 0 0 1
    outer loop
      vertex 22.1101 65.8534 3.4
      vertex 4 85 3.4
      vertex 22 43 3.4
    endloop
  endfacet
  facet normal 0 0 1
    outer loop
      vertex 22 43 3.4
      vertex 20.1899 9.34616 3.4
      vertex 20.95 8.29999 3.4
    endloop
  endfacet
  facet normal 0 0 1
    outer loop
      vertex 22 43 3.4
      vertex 11 10 3.4
      vertex 20.1899 9.34616 3.4
    endloop
  endfacet
  facet normal 0 0 1
    outer loop
      vertex 11 10 3.4
      vertex 18.9601 7.65343 3.4
      vertex 18.9601 8.94656 3.4
    endloop
  endfacet
  facet normal 0 0 1
    outer loop
      vertex 20.1899 9.34616 3.4
      vertex 11 10 3.4
      vertex 18.9601 8.94656 3.4
    endloop
  endfacet
  facet normal 0 0 1
    outer loop
      vertex 18.9601 7.65343 3.4
      vertex 11 10 3.4
      vertex 18 3 3.4
    endloop
  endfacet
  facet normal -0 0 1
    outer loop
      vertex 4 85 3.4
      vertex 23.3399 67.5462 3.4
      vertex 118 85 3.4
    endloop
  endfacet
  facet normal 0 0 1
    outer loop
      vertex 4 85 3.4
      vertex 22.1101 67.1466 3.4
      vertex 23.3399 67.5462 3.4
    endloop
  endfacet
  facet normal 0 0 1
    outer loop
      vertex 22 43 3.4
      vertex 4 85 3.4
      vertex 4 10 3.4
    endloop
  endfacet
  facet normal 0 0 1
    outer loop
      vertex 22 43 3.4
      vertex 4 10 3.4
      vertex 11 10 3.4
    endloop
  endfacet
  facet normal 0 0 1
    outer loop
      vertex 111.75 10 3.4
      vertex 105 2.75 3.4
      vertex 105.5 2.75 3.4
    endloop
  endfacet
  facet normal 0 0 1
    outer loop
      vertex 111.75 10 3.4
      vertex 94.75 2.75 3.4
      vertex 105 2.75 3.4
    endloop
  endfacet
  facet normal 0 0 1
    outer loop
      vertex 94.75 2.75 3.4
      vertex 99.5399 27.4038 3.4
      vertex 98.3101 27.8034 3.4
    endloop
  endfacet
  facet normal 0 0 1
    outer loop
      vertex 105 2.75 3.4
      vertex 94.75 2.75 3.4
      vertex 105 0.0291595 3.4
    endloop
  endfacet
  facet normal 0 0 1
    outer loop
      vertex 105 0.0291595 3.4
      vertex 94.75 2.75 3.4
      vertex 94.75 0.0291595 3.4
    endloop
  endfacet
  facet normal 0 0 1
    outer loop
      vertex 49.5 9.5 3.4
      vertex 42 4 3.4
      vertex 43 3 3.4
    endloop
  endfacet
  facet normal 0 0 1
    outer loop
      vertex 42 4 3.4
      vertex 40 3 3.4
      vertex 43 3 3.4
    endloop
  endfacet
  facet normal 0 0 1
    outer loop
      vertex 42 4 3.4
      vertex 24 3 3.4
      vertex 40 3 3.4
    endloop
  endfacet
  facet normal -0 0 1
    outer loop
      vertex 22 4 3.4
      vertex 24 3 3.4
      vertex 42 4 3.4
    endloop
  endfacet
  facet normal -0 0 1
    outer loop
      vertex 20.1899 7.25383 3.4
      vertex 22 4 3.4
      vertex 20.95 8.29999 3.4
    endloop
  endfacet
  facet normal 0 0 1
    outer loop
      vertex 18 3 3.4
      vertex 20.1899 7.25383 3.4
      vertex 18.9601 7.65343 3.4
    endloop
  endfacet
  facet normal 0 0 1
    outer loop
      vertex 22 4 3.4
      vertex 18 3 3.4
      vertex 24 3 3.4
    endloop
  endfacet
  facet normal 0 0 1
    outer loop
      vertex 20.1899 7.25383 3.4
      vertex 18 3 3.4
      vertex 22 4 3.4
    endloop
  endfacet
  facet normal -0 0 1
    outer loop
      vertex 23.3399 65.4538 3.4
      vertex 42 43 3.4
      vertex 24.1 66.5 3.4
    endloop
  endfacet
  facet normal 0 0 1
    outer loop
      vertex 22 43 3.4
      vertex 23.3399 65.4538 3.4
      vertex 22.1101 65.8534 3.4
    endloop
  endfacet
  facet normal 0 0 1
    outer loop
      vertex 23.3399 65.4538 3.4
      vertex 22 43 3.4
      vertex 42 43 3.4
    endloop
  endfacet
  facet normal 1 -0 0
    outer loop
      vertex 24 0.0291595 12
      vertex 24 3 3.4
      vertex 24 3 12
    endloop
  endfacet
  facet normal 1 0 0
    outer loop
      vertex 24 0.0291595 1.4
      vertex 24 3 3.4
      vertex 24 0.0291595 12
    endloop
  endfacet
  facet normal 1 0 0
    outer loop
      vertex 24 3 3.4
      vertex 24 0.0291595 1.4
      vertex 24 3 1.4
    endloop
  endfacet
  facet normal 0 -1 0
    outer loop
      vertex 24 3 1.4
      vertex 40 3 3.4
      vertex 24 3 3.4
    endloop
  endfacet
  facet normal 0 -1 -0
    outer loop
      vertex 40 3 3.4
      vertex 24 3 1.4
      vertex 40 3 1.4
    endloop
  endfacet
  facet normal -1 0 0
    outer loop
      vertex 40 0.0291595 1.4
      vertex 40 3 3.4
      vertex 40 3 1.4
    endloop
  endfacet
  facet normal -1 0 0
    outer loop
      vertex 40 0.0291595 12
      vertex 40 3 3.4
      vertex 40 0.0291595 1.4
    endloop
  endfacet
  facet normal -1 0 0
    outer loop
      vertex 40 3 3.4
      vertex 40 0.0291595 12
      vertex 40 3 12
    endloop
  endfacet
  facet normal 1 -0 0
    outer loop
      vertex 22 4 3.4
      vertex 22 43 1.4
      vertex 22 43 3.4
    endloop
  endfacet
  facet normal 1 0 0
    outer loop
      vertex 22 43 1.4
      vertex 22 4 3.4
      vertex 22 4 1.4
    endloop
  endfacet
  facet normal 0 -1 0
    outer loop
      vertex 22 43 1.4
      vertex 42 43 3.4
      vertex 22 43 3.4
    endloop
  endfacet
  facet normal 0 -1 -0
    outer loop
      vertex 42 43 3.4
      vertex 22 43 1.4
      vertex 42 43 1.4
    endloop
  endfacet
  facet normal -1 0 0
    outer loop
      vertex 42 4 1.4
      vertex 42 43 3.4
      vertex 42 43 1.4
    endloop
  endfacet
  facet normal -1 -0 0
    outer loop
      vertex 42 43 3.4
      vertex 42 4 1.4
      vertex 42 4 3.4
    endloop
  endfacet
  facet normal 0 1 -0
    outer loop
      vertex 42 4 1.4
      vertex 22 4 3.4
      vertex 42 4 3.4
    endloop
  endfacet
  facet normal 0 1 0
    outer loop
      vertex 22 4 3.4
      vertex 42 4 1.4
      vertex 22 4 1.4
    endloop
  endfacet
  facet normal -0 0 1
    outer loop
      vertex 20 86 11
      vertex 102 85 11
      vertex 102 86 11
    endloop
  endfacet
  facet normal 0 0 1
    outer loop
      vertex 102 85 11
      vertex 20 86 11
      vertex 20 85 11
    endloop
  endfacet
  facet normal -0 0 1
    outer loop
      vertex 118 69 11
      vertex 119 20 11
      vertex 119 69 11
    endloop
  endfacet
  facet normal 0 0 1
    outer loop
      vertex 119 20 11
      vertex 118 69 11
      vertex 118 20 11
    endloop
  endfacet
  facet normal -0 0 1
    outer loop
      vertex 3 69 11
      vertex 4 20 11
      vertex 4 69 11
    endloop
  endfacet
  facet normal 0 0 1
    outer loop
      vertex 4 20 11
      vertex 3 69 11
      vertex 3 20 11
    endloop
  endfacet
  facet normal -0 0 1
    outer loop
      vertex 52 9.5 11
      vertex 86 8.5 11
      vertex 86 9.5 11
    endloop
  endfacet
  facet normal 0 0 1
    outer loop
      vertex 86 8.5 11
      vertex 52 9.5 11
      vertex 52 8.5 11
    endloop
  endfacet
  facet normal 0 1 -0
    outer loop
      vertex 11 10 3.4
      vertex 4 10 12
      vertex 11 10 12
    endloop
  endfacet
  facet normal 0 1 0
    outer loop
      vertex 4 10 12
      vertex 11 10 3.4
      vertex 4 10 3.4
    endloop
  endfacet
  facet normal 1 0 0
    outer loop
      vertex 4 20 12
      vertex 4 10 12
      vertex 4 20 11
    endloop
  endfacet
  facet normal 1 0 0
    outer loop
      vertex 4 69 11
      vertex 4 85 12
      vertex 4 69 12
    endloop
  endfacet
  facet normal 1 0 0
    outer loop
      vertex 4 85 12
      vertex 4 69 11
      vertex 4 85 3.4
    endloop
  endfacet
  facet normal 1 0 0
    outer loop
      vertex 4 10 3.4
      vertex 4 69 11
      vertex 4 20 11
    endloop
  endfacet
  facet normal 1 0 0
    outer loop
      vertex 4 10 3.4
      vertex 4 20 11
      vertex 4 10 12
    endloop
  endfacet
  facet normal 1 0 0
    outer loop
      vertex 4 69 11
      vertex 4 10 3.4
      vertex 4 85 3.4
    endloop
  endfacet
  facet normal 0 -1 0
    outer loop
      vertex 4 85 12
      vertex 20 85 11
      vertex 20 85 12
    endloop
  endfacet
  facet normal 0 -1 -0
    outer loop
      vertex 20 85 11
      vertex 4 85 3.4
      vertex 102 85 11
    endloop
  endfacet
  facet normal 0 -1 0
    outer loop
      vertex 4 85 3.4
      vertex 20 85 11
      vertex 4 85 12
    endloop
  endfacet
  facet normal 0 -1 0
    outer loop
      vertex 102 85 11
      vertex 118 85 12
      vertex 102 85 12
    endloop
  endfacet
  facet normal 0 -1 0
    outer loop
      vertex 118 85 3.4
      vertex 102 85 11
      vertex 4 85 3.4
    endloop
  endfacet
  facet normal 0 -1 0
    outer loop
      vertex 102 85 11
      vertex 118 85 3.4
      vertex 118 85 12
    endloop
  endfacet
  facet normal -1 0 0
    outer loop
      vertex 118 85 3.4
      vertex 118 69 11
      vertex 118 85 12
    endloop
  endfacet
  facet normal -1 0 0
    outer loop
      vertex 118 10 3.4
      vertex 118 69 11
      vertex 118 85 3.4
    endloop
  endfacet
  facet normal -1 -0 0
    outer loop
      vertex 118 69 11
      vertex 118 10 3.4
      vertex 118 20 11
    endloop
  endfacet
  facet normal -1 0 0
    outer loop
      vertex 118 10 12
      vertex 118 20 11
      vertex 118 10 3.4
    endloop
  endfacet
  facet normal -1 0 0
    outer loop
      vertex 118 20 11
      vertex 118 10 12
      vertex 118 20 12
    endloop
  endfacet
  facet normal -1 -0 0
    outer loop
      vertex 118 85 12
      vertex 118 69 11
      vertex 118 69 12
    endloop
  endfacet
  facet normal 0 1 -0
    outer loop
      vertex 118 10 3.4
      vertex 111.75 10 12
      vertex 118 10 12
    endloop
  endfacet
  facet normal 0 1 0
    outer loop
      vertex 111.75 10 12
      vertex 118 10 3.4
      vertex 111.75 10 3.4
    endloop
  endfacet
  facet normal -0.75741 0.65294 0
    outer loop
      vertex 105.5 2.75 3.4
      vertex 111.75 10 12
      vertex 111.75 10 3.4
    endloop
  endfacet
  facet normal -0.75741 0.65294 0
    outer loop
      vertex 111.75 10 12
      vertex 105.5 2.75 3.4
      vertex 105.5 2.75 12
    endloop
  endfacet
  facet normal 0 1 -0
    outer loop
      vertex 105.5 2.75 3.4
      vertex 105 2.75 12
      vertex 105.5 2.75 12
    endloop
  endfacet
  facet normal 0 1 0
    outer loop
      vertex 105 2.75 12
      vertex 105.5 2.75 3.4
      vertex 105 2.75 3.4
    endloop
  endfacet
  facet normal -1 0 0
    outer loop
      vertex 105 0.0291595 3.4
      vertex 105 2.75 12
      vertex 105 2.75 3.4
    endloop
  endfacet
  facet normal -1 -0 0
    outer loop
      vertex 105 2.75 12
      vertex 105 0.0291595 3.4
      vertex 105 0.0291595 12
    endloop
  endfacet
  facet normal 0 1 -0
    outer loop
      vertex 24 3 3.4
      vertex 18 3 12
      vertex 24 3 12
    endloop
  endfacet
  facet normal 0 1 0
    outer loop
      vertex 18 3 12
      vertex 24 3 3.4
      vertex 18 3 3.4
    endloop
  endfacet
  facet normal 0.707107 0.707107 0
    outer loop
      vertex 18 3 12
      vertex 11 10 3.4
      vertex 11 10 12
    endloop
  endfacet
  facet normal 0.707107 0.707107 0
    outer loop
      vertex 11 10 3.4
      vertex 18 3 12
      vertex 18 3 3.4
    endloop
  endfacet
  facet normal 1 -0 0
    outer loop
      vertex 94.75 0.0291595 12
      vertex 94.75 2.75 3.4
      vertex 94.75 2.75 12
    endloop
  endfacet
  facet normal 1 0 0
    outer loop
      vertex 94.75 2.75 3.4
      vertex 94.75 0.0291595 12
      vertex 94.75 0.0291595 3.4
    endloop
  endfacet
  facet normal 0 1 -0
    outer loop
      vertex 94.75 2.75 3.4
      vertex 94.25 2.75 12
      vertex 94.75 2.75 12
    endloop
  endfacet
  facet normal 0 1 0
    outer loop
      vertex 94.25 2.75 12
      vertex 94.75 2.75 3.4
      vertex 94.25 2.75 3.4
    endloop
  endfacet
  facet normal 0.761243 0.648466 0
    outer loop
      vertex 94.25 2.75 12
      vertex 88.5 9.5 3.4
      vertex 88.5 9.5 12
    endloop
  endfacet
  facet normal 0.761243 0.648466 0
    outer loop
      vertex 88.5 9.5 3.4
      vertex 94.25 2.75 12
      vertex 94.25 2.75 3.4
    endloop
  endfacet
  facet normal 0 1 0
    outer loop
      vertex 88.5 9.5 12
      vertex 86 9.5 11
      vertex 86 9.5 12
    endloop
  endfacet
  facet normal 0 1 0
    outer loop
      vertex 86 9.5 11
      vertex 88.5 9.5 3.4
      vertex 52 9.5 11
    endloop
  endfacet
  facet normal 0 1 -0
    outer loop
      vertex 88.5 9.5 3.4
      vertex 86 9.5 11
      vertex 88.5 9.5 12
    endloop
  endfacet
  facet normal 0 1 -0
    outer loop
      vertex 52 9.5 11
      vertex 49.5 9.5 12
      vertex 52 9.5 12
    endloop
  endfacet
  facet normal 0 1 0
    outer loop
      vertex 52 9.5 11
      vertex 49.5 9.5 3.4
      vertex 49.5 9.5 12
    endloop
  endfacet
  facet normal 0 1 0
    outer loop
      vertex 49.5 9.5 3.4
      vertex 52 9.5 11
      vertex 88.5 9.5 3.4
    endloop
  endfacet
  facet normal -0.707107 0.707107 0
    outer loop
      vertex 43 3 3.4
      vertex 49.5 9.5 12
      vertex 49.5 9.5 3.4
    endloop
  endfacet
  facet normal -0.707107 0.707107 0
    outer loop
      vertex 49.5 9.5 12
      vertex 43 3 3.4
      vertex 43 3 12
    endloop
  endfacet
  facet normal 0 1 -0
    outer loop
      vertex 43 3 3.4
      vertex 40 3 12
      vertex 43 3 12
    endloop
  endfacet
  facet normal 0 1 0
    outer loop
      vertex 40 3 12
      vertex 43 3 3.4
      vertex 40 3 3.4
    endloop
  endfacet
  facet normal 0 0 1
    outer loop
      vertex 118.482 88.9708 12
      vertex 102 86 12
      vertex 118 85 12
    endloop
  endfacet
  facet normal -0 0 1
    outer loop
      vertex 4.48213 88.9708 12
      vertex 102 86 12
      vertex 118.482 88.9708 12
    endloop
  endfacet
  facet normal 0 0 1
    outer loop
      vertex 102 86 12
      vertex 4.48213 88.9708 12
      vertex 20 86 12
    endloop
  endfacet
  facet normal 0 0 1
    outer loop
      vertex 4 85 12
      vertex 20 86 12
      vertex 4.48213 88.9708 12
    endloop
  endfacet
  facet normal 0 0 1
    outer loop
      vertex 20 86 12
      vertex 4 85 12
      vertex 20 85 12
    endloop
  endfacet
  facet normal 0 0 1
    outer loop
      vertex 4 85 12
      vertex 3 69 12
      vertex 4 69 12
    endloop
  endfacet
  facet normal 0 0 1
    outer loop
      vertex 4 85 12
      vertex 0.116226 85.9573 12
      vertex 3 69 12
    endloop
  endfacet
  facet normal -0 0 1
    outer loop
      vertex 0.116226 85.9573 12
      vertex 4 85 12
      vertex 2.58157 88.7401 12
    endloop
  endfacet
  facet normal -0 0 1
    outer loop
      vertex 2.58157 88.7401 12
      vertex 4 85 12
      vertex 4.48213 88.9708 12
    endloop
  endfacet
  facet normal 0 0 1
    outer loop
      vertex 118 85 12
      vertex 122 85 12
      vertex 121.542 86.8589 12
    endloop
  endfacet
  facet normal 0 0 1
    outer loop
      vertex 122 85 12
      vertex 119 69 12
      vertex 122 4 12
    endloop
  endfacet
  facet normal 0 0 1
    outer loop
      vertex 118 85 12
      vertex 121.542 86.8589 12
      vertex 120.272 88.2919 12
    endloop
  endfacet
  facet normal -0 0 1
    outer loop
      vertex 119 20 12
      vertex 122 4 12
      vertex 119 69 12
    endloop
  endfacet
  facet normal -0 0 1
    outer loop
      vertex 118 10 12
      vertex 122 4 12
      vertex 119 20 12
    endloop
  endfacet
  facet normal 0 0 1
    outer loop
      vertex 118 85 12
      vertex 120.272 88.2919 12
      vertex 118.482 88.9708 12
    endloop
  endfacet
  facet normal 0 0 1
    outer loop
      vertex 122 85 12
      vertex 118 85 12
      vertex 119 69 12
    endloop
  endfacet
  facet normal 0 0 1
    outer loop
      vertex 119 69 12
      vertex 118 85 12
      vertex 118 69 12
    endloop
  endfacet
  facet normal 0 -0 1
    outer loop
      vertex 118.482 0.0291595 12
      vertex 122 4 12
      vertex 118 10 12
    endloop
  endfacet
  facet normal 0 0 1
    outer loop
      vertex 122 4 12
      vertex 118.482 0.0291595 12
      vertex 121.542 2.1411 12
    endloop
  endfacet
  facet normal 0 0 1
    outer loop
      vertex 118 10 12
      vertex 119 20 12
      vertex 118 20 12
    endloop
  endfacet
  facet normal 0 0 1
    outer loop
      vertex 121.542 2.1411 12
      vertex 118.482 0.0291595 12
      vertex 120.272 0.708054 12
    endloop
  endfacet
  facet normal -0 0 1
    outer loop
      vertex 111.75 10 12
      vertex 118.482 0.0291595 12
      vertex 118 10 12
    endloop
  endfacet
  facet normal -0 0 1
    outer loop
      vertex 105.5 2.75 12
      vertex 118.482 0.0291595 12
      vertex 111.75 10 12
    endloop
  endfacet
  facet normal 0 0 1
    outer loop
      vertex 105 0.0291595 12
      vertex 105.5 2.75 12
      vertex 105 2.75 12
    endloop
  endfacet
  facet normal 0 0 1
    outer loop
      vertex 105.5 2.75 12
      vertex 105 0.0291595 12
      vertex 118.482 0.0291595 12
    endloop
  endfacet
  facet normal 0 0 1
    outer loop
      vertex 118 85 12
      vertex 102 86 12
      vertex 102 85 12
    endloop
  endfacet
  facet normal 0 0 1
    outer loop
      vertex 4 20 12
      vertex 3 20 12
      vertex 4 10 12
    endloop
  endfacet
  facet normal -0 0 1
    outer loop
      vertex 18 3 12
      vertex 24 0.0291595 12
      vertex 24 3 12
    endloop
  endfacet
  facet normal 0 0 1
    outer loop
      vertex 18 3 12
      vertex 4.48213 0.0291595 12
      vertex 24 0.0291595 12
    endloop
  endfacet
  facet normal 0 0 1
    outer loop
      vertex 11 10 12
      vertex 4.48213 0.0291595 12
      vertex 18 3 12
    endloop
  endfacet
  facet normal -0 0 1
    outer loop
      vertex 4 10 12
      vertex 4.48213 0.0291595 12
      vertex 11 10 12
    endloop
  endfacet
  facet normal 0 0 1
    outer loop
      vertex 0.116226 3.04272 12
      vertex 4 10 12
      vertex 3 20 12
    endloop
  endfacet
  facet normal 0 0 1
    outer loop
      vertex 4 10 12
      vertex 0.116226 3.04272 12
      vertex 4.48213 0.0291595 12
    endloop
  endfacet
  facet normal 0 0 1
    outer loop
      vertex 3 69 12
      vertex 0.116226 85.9573 12
      vertex 3 20 12
    endloop
  endfacet
  facet normal 0 0 1
    outer loop
      vertex 0.116226 85.9573 12
      vertex 2.58157 88.7401 12
      vertex 1.00595 87.6525 12
    endloop
  endfacet
  facet normal 0 0 1
    outer loop
      vertex 0.116226 3.04272 12
      vertex 3 20 12
      vertex 0.116226 85.9573 12
    endloop
  endfacet
  facet normal 0 0 1
    outer loop
      vertex 4.48213 0.0291595 12
      vertex 0.116226 3.04272 12
      vertex 2.58157 0.259933 12
    endloop
  endfacet
  facet normal 0 0 1
    outer loop
      vertex 2.58157 0.259933 12
      vertex 0.116226 3.04272 12
      vertex 1.00595 1.3475 12
    endloop
  endfacet
  facet normal 0 0 1
    outer loop
      vertex 52 9.5 12
      vertex 49.5 9.5 12
      vertex 52 8.5 12
    endloop
  endfacet
  facet normal -0 0 1
    outer loop
      vertex 94.25 2.75 12
      vertex 94.75 0.0291595 12
      vertex 94.75 2.75 12
    endloop
  endfacet
  facet normal -0 0 1
    outer loop
      vertex 86 8.5 12
      vertex 94.25 2.75 12
      vertex 88.5 9.5 12
    endloop
  endfacet
  facet normal 0 0 1
    outer loop
      vertex 86 8.5 12
      vertex 88.5 9.5 12
      vertex 86 9.5 12
    endloop
  endfacet
  facet normal 0 0 1
    outer loop
      vertex 94.25 2.75 12
      vertex 86 8.5 12
      vertex 94.75 0.0291595 12
    endloop
  endfacet
  facet normal -0 0 1
    outer loop
      vertex 52 8.5 12
      vertex 94.75 0.0291595 12
      vertex 86 8.5 12
    endloop
  endfacet
  facet normal 0 0 1
    outer loop
      vertex 43 3 12
      vertex 52 8.5 12
      vertex 49.5 9.5 12
    endloop
  endfacet
  facet normal 0 0 1
    outer loop
      vertex 40 0.0291595 12
      vertex 52 8.5 12
      vertex 43 3 12
    endloop
  endfacet
  facet normal 0 0 1
    outer loop
      vertex 40 0.0291595 12
      vertex 43 3 12
      vertex 40 3 12
    endloop
  endfacet
  facet normal 0 0 1
    outer loop
      vertex 52 8.5 12
      vertex 40 0.0291595 12
      vertex 94.75 0.0291595 12
    endloop
  endfacet
  facet normal -1 0 0
    outer loop
      vertex 102 85 11
      vertex 102 86 12
      vertex 102 86 11
    endloop
  endfacet
  facet normal -1 -0 0
    outer loop
      vertex 102 86 12
      vertex 102 85 11
      vertex 102 85 12
    endloop
  endfacet
  facet normal 0 -1 0
    outer loop
      vertex 118 69 11
      vertex 119 69 12
      vertex 118 69 12
    endloop
  endfacet
  facet normal 0 -1 -0
    outer loop
      vertex 119 69 12
      vertex 118 69 11
      vertex 119 69 11
    endloop
  endfacet
  facet normal -1 0 0
    outer loop
      vertex 119 20 11
      vertex 119 69 12
      vertex 119 69 11
    endloop
  endfacet
  facet normal -1 -0 0
    outer loop
      vertex 119 69 12
      vertex 119 20 11
      vertex 119 20 12
    endloop
  endfacet
  facet normal 0 1 -0
    outer loop
      vertex 119 20 11
      vertex 118 20 12
      vertex 119 20 12
    endloop
  endfacet
  facet normal 0 1 0
    outer loop
      vertex 118 20 12
      vertex 119 20 11
      vertex 118 20 11
    endloop
  endfacet
  facet normal 0 1 -0
    outer loop
      vertex 4 20 11
      vertex 3 20 12
      vertex 4 20 12
    endloop
  endfacet
  facet normal 0 1 0
    outer loop
      vertex 3 20 12
      vertex 4 20 11
      vertex 3 20 11
    endloop
  endfacet
  facet normal 1 -0 0
    outer loop
      vertex 3 20 12
      vertex 3 69 11
      vertex 3 69 12
    endloop
  endfacet
  facet normal 1 0 0
    outer loop
      vertex 3 69 11
      vertex 3 20 12
      vertex 3 20 11
    endloop
  endfacet
  facet normal 0 -1 0
    outer loop
      vertex 3 69 11
      vertex 4 69 12
      vertex 3 69 12
    endloop
  endfacet
  facet normal 0 -1 -0
    outer loop
      vertex 4 69 12
      vertex 3 69 11
      vertex 4 69 11
    endloop
  endfacet
  facet normal 1 -0 0
    outer loop
      vertex 20 85 12
      vertex 20 86 11
      vertex 20 86 12
    endloop
  endfacet
  facet normal 1 0 0
    outer loop
      vertex 20 86 11
      vertex 20 85 12
      vertex 20 85 11
    endloop
  endfacet
  facet normal 0 -1 0
    outer loop
      vertex 20 86 11
      vertex 102 86 12
      vertex 20 86 12
    endloop
  endfacet
  facet normal 0 -1 -0
    outer loop
      vertex 102 86 12
      vertex 20 86 11
      vertex 102 86 11
    endloop
  endfacet
  facet normal -1 0 0
    outer loop
      vertex 86 8.5 11
      vertex 86 9.5 12
      vertex 86 9.5 11
    endloop
  endfacet
  facet normal -1 -0 0
    outer loop
      vertex 86 9.5 12
      vertex 86 8.5 11
      vertex 86 8.5 12
    endloop
  endfacet
  facet normal 0 1 -0
    outer loop
      vertex 86 8.5 11
      vertex 52 8.5 12
      vertex 86 8.5 12
    endloop
  endfacet
  facet normal 0 1 0
    outer loop
      vertex 52 8.5 12
      vertex 86 8.5 11
      vertex 52 8.5 11
    endloop
  endfacet
  facet normal 1 -0 0
    outer loop
      vertex 52 8.5 12
      vertex 52 9.5 11
      vertex 52 9.5 12
    endloop
  endfacet
  facet normal 1 0 0
    outer loop
      vertex 52 9.5 11
      vertex 52 8.5 12
      vertex 52 8.5 11
    endloop
  endfacet
endsolid OpenSCAD_Model
